<svg id="Capa_1" enable-background="new 0 0 497 497" height="512" viewBox="0 0 497 497" width="512" xmlns="http://www.w3.org/2000/svg"><g><g><path d="m200.179 255c-15.72-8.145-52.202-32.729-68.789-44.777-13.675-9.932-26.104-21.507-36.661-34.705-16.531-20.666-28.341-44.365-30.1-70.687-.981-14.674-3.299-49.361 20.53-76.131 21.573-24.236 52.022-27.95 60.27-28.503 48.596-3.258 79.546 35.093 82.746 39.081h.007c3.2-3.988 34.15-42.34 82.746-39.081 8.249.553 38.698 4.267 60.27 28.503 23.829 26.77 21.511 61.457 20.53 76.131-1.759 26.323-13.569 50.022-30.1 70.687-10.558 13.198-22.987 24.773-36.661 34.705-16.587 12.047-49.632 34.494-65.352 42.638z" fill="#bf4a55"/></g><g><path d="m276.52 242.97c-6.52 4.08-12.42 7.57-16.9 9.89l-59.44 2.14c-15.72-8.14-52.2-32.73-68.79-44.78-13.67-9.93-26.1-21.5-36.66-34.7-16.53-20.67-28.34-44.37-30.1-70.69-.98-14.67-3.3-49.36 20.53-76.13 10.75-12.08 23.71-19.07 35.03-23.09-5.22 3.51-10.33 7.81-15.03 13.09-23.83 26.77-21.51 61.46-20.53 76.13 1.76 26.32 13.57 50.02 30.1 70.69 10.56 13.2 22.99 24.77 36.66 34.7 16.59 12.05 53.07 36.64 68.79 44.78z" fill="#ba333e"/></g><path d="m432.929 369.551c0-16.208-13.2-29.346-29.484-29.346-11.978 0-22.279 7.112-26.894 17.322v-2.084-12.314c0-16.208-13.2-29.346-29.484-29.346s-29.484 13.138-29.484 29.346c-.011-7.851-.021-15.702-.032-23.553 0-16.208-13.2-29.346-29.484-29.346-13.604 0-25.05 9.172-28.45 21.641v-104.525c0-16.208-13.2-29.346-29.484-29.346s-29.484 13.138-29.484 29.346v213.004l-42.385-42.186c-11.515-11.46-30.183-11.46-41.698 0-11.514 11.461-11.514 30.041 0 41.502 20.095 21.307 40.19 42.613 60.285 63.92 3.109 3.435 9.497 9.44 19.338 12.108 3.211.871 6.176 1.219 8.723 1.307h198.534c16.284 0 29.484-13.138 29.484-29.346 0-.595-.023-1.184-.058-1.771.035-.586.058-1.176.058-1.771v-94.562z" fill="#f0c585"/><g fill="#ebaa61"><path d="m228.61 178.04c-3.13 4.66-4.96 10.27-4.96 16.31v236.8c0 4.449-5.374 6.682-8.527 3.544l-14.473-14.404v-212.94c0-15.7 12.39-28.53 27.96-29.31z"/><path d="m229.91 497h-25c-2.55-.09-5.51-.44-8.72-1.31-9.84-2.66-16.23-8.67-19.34-12.1-20.1-21.31-40.19-42.62-60.29-63.92-11.51-11.47-11.51-30.05 0-41.51l.1-.1c-.94 8.53 1.89 17.38 8.46 23.92 20.09 21.31 56.63 60.3 76.73 81.61 3.11 3.43 9.5 9.44 19.34 12.1 3.21.87 6.17 1.22 8.72 1.31z"/><path d="m286.58 290.27c-4.35 5.14-6.96 11.83-6.96 19.02v54.74c0 5.523-4.477 10-10 10-5.523 0-10-4.477-10-10v-51.431c0-.483.062-.967.201-1.43 3.5-11.656 14.062-20.272 26.759-20.899z"/><path d="m346.05 313.81c-5.24 6.2-8.47 14.69-8.47 24.07v26.15c0 5.523-4.477 10-10 10-5.523 0-10-4.477-10-10v-20.9c0-15.87 12.65-28.8 28.47-29.32z"/><path d="m402.48 340.23c-3.91 5.54-5.93 12.27-5.93 19.12v4.68c0 5.523-4.477 10-10 10-5.523 0-10-4.477-10-10v-5.36c0-.75.155-1.499.49-2.17 4.701-9.391 14.283-15.923 25.44-16.27z"/></g></g></svg>